<svg width="32" height="32" viewBox="0 0 32 32" fill="none" xmlns="http://www.w3.org/2000/svg">
<path d="M26 20H20V18H26V20ZM30 28H24V26H30V28ZM28 24H22V22H28V24Z" fill="#1A120B"/>
<path d="M17.003 20C16.9955 19.1563 16.7702 18.3289 16.3491 17.5978C15.9279 16.8667 15.3251 16.2567 14.599 15.827L22 3L20.27 2L12.693 15.126C11.7631 14.9184 10.796 14.9471 9.88008 15.2097C8.96416 15.4723 8.12868 15.9602 7.45002 16.629C3.70602 20.24 3.99602 28.682 4.01002 29.04C4.02035 29.2982 4.13026 29.5424 4.31669 29.7214C4.50311 29.9004 4.75159 30.0002 5.01002 30H20.001C20.2109 30 20.4155 29.934 20.5857 29.8112C20.756 29.6885 20.8833 29.5153 20.9497 29.3162C21.0161 29.1171 21.0181 28.9022 20.9555 28.7018C20.893 28.5015 20.7689 28.3259 20.601 28.2C17.061 25.544 17.003 20.054 17.003 20ZM11.93 16.997C12.7304 17.0058 13.4966 17.3228 14.0691 17.8822C14.6417 18.4415 14.9765 19.2001 15.004 20C15.004 20.038 15.006 20.208 15.021 20.469L9.12102 17.845C9.50966 17.5245 9.95813 17.2845 10.4404 17.1389C10.9226 16.9934 11.429 16.9451 11.93 16.997ZM15.45 28C14.6507 27.1861 14.1412 26.132 14 25H12C12.0716 26.0643 12.4041 27.0946 12.968 28H10.745C10.3336 26.7023 10.0834 25.3588 10 24H8.00002C8.06412 25.3548 8.28732 26.6973 8.66502 28H6.00002C6.03102 26.164 6.29002 22.108 7.80302 19.447L15.336 22.797C15.6972 24.6766 16.4689 26.4532 17.596 28H15.45Z" fill="#1A120B"/>
</svg>
