<svg width="14" height="14" viewBox="0 0 14 14" fill="none" xmlns="http://www.w3.org/2000/svg">
<g clip-path="url(#clip0_73_165)">
<path fill-rule="evenodd" clip-rule="evenodd" d="M9.81204 0.63305C9.99504 -0.20295 11.186 -0.20795 11.377 0.62705L11.386 0.66705L11.404 0.74405C11.624 1.67905 12.38 2.39305 13.327 2.55805C14.199 2.71005 14.199 3.96205 13.327 4.11405C12.8614 4.19529 12.4302 4.41221 12.0874 4.73758C11.7446 5.06296 11.5055 5.48231 11.4 5.94305L11.377 6.04505C11.187 6.88005 9.99504 6.87505 9.81204 6.03805L9.79204 5.95005C9.69127 5.48773 9.45497 5.06594 9.11334 4.73855C8.7717 4.41117 8.34024 4.19305 7.87404 4.11205C7.00304 3.96105 7.00304 2.71105 7.87404 2.55905C8.33855 2.47839 8.76864 2.26158 9.10976 1.93614C9.45088 1.61069 9.68765 1.19126 9.79004 0.73105L9.80404 0.66605L9.81204 0.63305ZM3.74004 4.24005L6.14604 3.57205C6.23404 4.32205 6.74804 5.02205 7.68704 5.18605C8.20504 5.27605 8.61704 5.67005 8.73004 6.18405L8.74904 6.27205L8.76204 6.32905L4.39504 7.54005V11.808C4.39484 12.2706 4.24804 12.7212 3.97575 13.0951C3.70345 13.469 3.31966 13.747 2.8795 13.8892C2.43934 14.0313 1.96544 14.0303 1.52588 13.8863C1.08631 13.7423 0.703689 13.4627 0.432962 13.0877C0.162234 12.7126 0.0173297 12.2614 0.0190583 11.7989C0.0207869 11.3363 0.16906 10.8862 0.442583 10.5132C0.716106 10.1402 1.10081 9.86348 1.54144 9.72277C1.98207 9.58205 2.45595 9.5846 2.89504 9.73005V5.34005C2.89696 5.08971 2.98052 4.84684 3.13303 4.64831C3.28554 4.44978 3.49866 4.30644 3.74004 4.24005ZM11.547 7.51305C11.2988 7.64943 11.0243 7.73098 10.7419 7.7522C10.4595 7.77341 10.1758 7.73381 9.91004 7.63605C9.58655 7.55269 9.24829 7.54436 8.92109 7.61172C8.59389 7.67907 8.28642 7.82031 8.02215 8.02466C7.75789 8.22901 7.54382 8.49106 7.39631 8.79079C7.2488 9.09051 7.17175 9.41999 7.17104 9.75405C7.16362 10.3343 7.38702 10.8938 7.79209 11.3094C8.19717 11.725 8.75075 11.9626 9.33104 11.97C9.91134 11.9775 10.4708 11.7541 10.8864 11.349C11.302 10.9439 11.5396 10.3903 11.547 9.81005V7.51305Z" fill="#D5CEA3"/>
</g>
<defs>
<clipPath id="clip0_73_165">
<rect width="14" height="14" fill="white"/>
</clipPath>
</defs>
</svg>
