<svg width="43" height="43" viewBox="0 0 43 43" fill="none" xmlns="http://www.w3.org/2000/svg">
<rect y="21.0312" width="29.7426" height="29.7426" transform="rotate(-45 0 21.0312)" fill="#3C2A21"/>
<rect x="3.70708" y="21.0312" width="24.5" height="24.5" transform="rotate(-45 3.70708 21.0312)" stroke="#D5CEA3"/>
<path d="M19.9688 17.5085L16.0188 21.4585C15.8302 21.6407 15.5776 21.7415 15.3154 21.7392C15.0532 21.7369 14.8024 21.6318 14.617 21.4464C14.4316 21.261 14.3264 21.0101 14.3241 20.7479C14.3218 20.4857 14.4226 20.2331 14.6048 20.0445L20.2618 14.3875C20.3544 14.2944 20.4646 14.2204 20.5859 14.1699C20.7073 14.1195 20.8374 14.0935 20.9688 14.0935C21.1002 14.0935 21.2303 14.1195 21.3516 14.1699C21.473 14.2204 21.5831 14.2944 21.6758 14.3875L27.3328 20.0445C27.5104 20.234 27.6074 20.4851 27.6032 20.7448C27.599 21.0045 27.4939 21.2523 27.3102 21.4359C27.1265 21.6195 26.8785 21.7244 26.6189 21.7285C26.3592 21.7325 26.1081 21.6353 25.9188 21.4575L21.9688 17.5075V27.0935C21.9688 27.3588 21.8634 27.6131 21.6759 27.8006C21.4883 27.9882 21.234 28.0935 20.9688 28.0935C20.7036 28.0935 20.4492 27.9882 20.2617 27.8006C20.0741 27.6131 19.9688 27.3588 19.9688 27.0935V17.5085Z" fill="#D5CEA3"/>
</svg>
