<svg width="30" height="30" viewBox="0 0 30 30" fill="none" xmlns="http://www.w3.org/2000/svg">
<rect y="15" width="21.2132" height="21.2132" transform="rotate(-45 0 15)" fill="#3C2A21"/>
<rect x="1.71931" y="15" width="18.7817" height="18.7817" transform="rotate(-45 1.71931 15)" stroke="#D5CEA3"/>
<path d="M20.1607 11.9939C20.3093 11.9941 20.4523 12.051 20.5604 12.1531C20.6686 12.2551 20.7336 12.3946 20.7423 12.5431C20.751 12.6915 20.7028 12.8376 20.6073 12.9516C20.5119 13.0657 20.3765 13.1389 20.2289 13.1565L20.1607 13.1606H20.1134L19.5773 19.5772C19.5773 20.0236 19.4068 20.4531 19.1006 20.7779C18.7943 21.1027 18.3756 21.2981 17.93 21.3243L17.8273 21.3272H13.1606C12.2285 21.3272 11.4666 20.5987 11.4153 19.7231L11.4124 19.6257L10.874 13.1606H10.8273C10.6786 13.1604 10.5356 13.1035 10.4275 13.0014C10.3194 12.8993 10.2543 12.7599 10.2456 12.6114C10.2369 12.463 10.2852 12.3169 10.3806 12.2028C10.4761 12.0888 10.6114 12.0156 10.7591 11.998L10.8273 11.9939H20.1607ZM14.3273 14.3272C14.1726 14.3272 14.0242 14.3887 13.9148 14.4981C13.8054 14.6075 13.744 14.7559 13.744 14.9106V18.4106C13.744 18.5653 13.8054 18.7137 13.9148 18.8231C14.0242 18.9325 14.1726 18.9939 14.3273 18.9939C14.482 18.9939 14.6304 18.9325 14.7398 18.8231C14.8492 18.7137 14.9106 18.5653 14.9106 18.4106V14.9106C14.9106 14.7559 14.8492 14.6075 14.7398 14.4981C14.6304 14.3887 14.482 14.3272 14.3273 14.3272ZM16.6606 14.3272C16.5059 14.3272 16.3576 14.3887 16.2482 14.4981C16.1388 14.6075 16.0773 14.7559 16.0773 14.9106V18.4106C16.0773 18.5653 16.1388 18.7137 16.2482 18.8231C16.3576 18.9325 16.5059 18.9939 16.6606 18.9939C16.8154 18.9939 16.9637 18.9325 17.0731 18.8231C17.1825 18.7137 17.244 18.5653 17.244 18.4106V14.9106C17.244 14.7559 17.1825 14.6075 17.0731 14.4981C16.9637 14.3887 16.8154 14.3272 16.6606 14.3272ZM16.6606 9.66058C16.9701 9.66058 17.2668 9.78349 17.4856 10.0023C17.7044 10.2211 17.8273 10.5178 17.8273 10.8272C17.8272 10.9759 17.7702 11.1189 17.6682 11.227C17.5661 11.3352 17.4266 11.4002 17.2782 11.4089C17.1297 11.4176 16.9836 11.3693 16.8696 11.2739C16.7556 11.1785 16.6823 11.0431 16.6647 10.8955L16.6606 10.8272H14.3273L14.3232 10.8955C14.3057 11.0431 14.2324 11.1785 14.1184 11.2739C14.0044 11.3693 13.8582 11.4176 13.7098 11.4089C13.5614 11.4002 13.4219 11.3352 13.3198 11.227C13.2177 11.1189 13.1608 10.9759 13.1606 10.8272C13.1606 10.5329 13.2717 10.2494 13.4719 10.0336C13.672 9.81777 13.9463 9.68557 14.2398 9.66349L14.3273 9.66058H16.6606Z" fill="#E5E5CB"/>
</svg>
